<?xml version="1.0" encoding="utf-8"?>
<!-- Generator: Adobe Illustrator 16.0.0, SVG Export Plug-In . SVG Version: 6.00 Build 0)  -->
<!DOCTYPE svg PUBLIC "-//W3C//DTD SVG 1.1//EN" "http://www.w3.org/Graphics/SVG/1.1/DTD/svg11.dtd">
<svg version="1.1" id="Layer_1" xmlns="http://www.w3.org/2000/svg" xmlns:xlink="http://www.w3.org/1999/xlink" x="0px" y="0px"
	 width="885.088px" height="858.086px" viewBox="0 0 885.088 858.086" enable-background="new 0 0 885.088 858.086"
	 xml:space="preserve">
<polygon fill="#718699" points="495.44,251.762 496.6,233.195 484.996,234.357 482.68,230.1 479.199,228.941 479.97,214.632 
	474.559,211.534 474.559,197.225 461.792,197.225 458.312,203.412 448.641,203.802 445.55,211.148 401.84,211.148 396.812,204.963 
	367.029,203.412 342.276,161.638 327.19,160.479 327.19,131.085 299.919,131.085 299.919,88.732 276.711,78.869 256.404,70.166 
	245.961,43.478 229.715,43.478 202.448,60.302 184.463,62.043 184.463,99.176 140.369,99.176 135.146,109.038 93.952,109.038 
	82.351,121.802 69.586,120.641 49.281,140.948 40.575,147.909 40.575,208.83 47.539,212.31 47.539,247.121 64.944,262.787 
	119.482,262.787 133.986,275.55 147.332,272.648 159.515,280.771 185.043,280.771 185.043,304.56 195.487,310.36 193.746,320.804 
	189.104,324.284 190.265,339.37 214.052,340.531 221.013,346.913 217.533,373.021 236.678,375.921 256.984,392.746 252.924,443.804 
	247.121,447.864 247.702,465.27 291.216,465.849 297.598,471.65 294.695,500.081 405.51,501.821 417.113,487.897 410.732,480.354 
	410.732,423.495 426.979,405.511 426.979,393.329 440.322,380.562 451.926,381.142 473.971,364.897 481.516,358.516 
	479.194,321.964 471.653,306.88 458.888,301.078 454.826,252.924 "/>
<polygon fill="#415D77" points="495.44,251.762 522.133,251.762 533.735,233.195 536.056,210.763 584.018,209.99 603.357,181.365 
	607.225,162.799 633.528,161.253 639.714,168.216 639.714,185.237 654.414,186.782 679.166,208.443 726.356,211.534 
	727.126,227.781 747.242,250.986 757.297,252.536 758.847,272.648 789.785,274.969 794.429,282.707 786.695,290.439 792.882,292.76 
	815.313,293.535 833.108,309.781 843.939,318.288 843.939,329.894 857.088,343.817 853.997,350.008 847.033,354.651 
	847.804,391.006 840.843,394.874 839.296,440.516 834.655,449.024 834.655,461.401 819.184,474.552 814.544,535.667 
	830.788,541.078 830.014,580.53 803.71,596.004 792.107,604.511 784.375,624.626 758.07,626.174 742.603,616.892 705.47,615.347 
	689.223,621.533 678.392,640.872 667.562,644.738 580.921,647.837 548.432,623.854 544.565,617.667 561.586,608.384 
	562.354,600.645 580.151,592.138 580.921,571.253 573.96,565.059 557.716,565.059 556.944,500.081 545.34,490.798 556.168,473.782 
	556.168,423.495 551.527,416.535 551.527,386.362 532.186,375.535 532.186,369.349 529.475,362.388 516.713,362.388 502.406,371.67 
	479.97,370.124 473.971,364.897 481.516,358.516 479.194,321.964 471.653,306.88 458.888,301.078 454.826,252.924 "/>
<polygon fill="#123555" points="405.51,501.821 408.802,514.396 416.15,517.489 414.22,543.018 426.981,555.007 425.822,560.425 
	430.463,565.066 444.773,565.066 451.351,570.477 467.596,571.638 472.237,565.45 487.321,565.837 491.189,560.81 491.189,445.935 
	486.161,442.451 486.161,370.509 479.97,370.124 473.971,364.897 451.926,381.142 440.322,380.562 426.979,393.329 426.979,405.511 
	410.732,423.495 410.732,480.354 417.113,487.897 "/>
<polygon fill="#0E2840" points="486.161,370.509 502.406,371.67 516.713,362.388 529.475,362.388 532.186,369.349 532.186,375.535 
	551.527,386.362 551.527,416.535 556.168,423.495 556.168,473.782 545.34,490.798 556.944,500.081 557.716,565.059 532.959,565.83 
	528.318,571.442 491.383,572.988 487.321,565.837 491.189,560.81 491.189,445.935 486.161,442.451 "/>
<polygon fill="#D0D7DD" points="190.265,339.37 130.316,334.534 108.654,350.008 104.011,371.665 118.712,381.722 117.938,395.646 
	104.402,407.25 104.787,425.042 117.552,434.714 119.098,443.608 126.059,446.317 124.515,453.281 148.106,476.489 147.721,492.348 
	158.549,504.343 173.635,517.489 180.985,519.035 193.749,531.413 200.712,535.28 249.447,536.831 257.954,522.517 269.56,518.649 
	279.227,503.18 294.695,500.081 297.598,471.65 291.216,465.849 247.702,465.27 247.121,447.864 252.924,443.804 256.984,392.746 
	236.678,375.921 217.533,373.021 221.013,346.913 214.052,340.531 "/>
<polygon fill="#A0AEBB" points="129.925,535.667 183.592,535.667 192.295,530.831 200.712,535.28 248.571,536.632 257.954,522.517 
	269.56,518.649 279.227,503.18 294.695,500.081 405.51,501.821 408.802,514.396 416.15,517.489 414.22,543.018 426.981,555.007 
	425.822,560.425 430.463,565.066 444.773,565.066 451.351,570.477 467.596,571.638 472.237,565.45 487.321,565.837 491.383,572.988 
	528.318,571.442 532.959,565.83 573.96,565.059 580.921,571.253 580.151,592.138 562.354,600.645 561.586,608.384 544.565,617.667 
	548.432,623.854 549.592,627.53 537.988,633.716 534.312,637.002 534.312,649.768 491.669,649.768 485.143,654.553 485.433,661.37 
	490.51,665.868 505.447,667.317 509.219,660.79 531.699,660.79 535.905,661.37 538.808,667.752 546.06,667.752 556.553,679.165 
	556.553,691.931 550.75,697.347 508.979,696.569 502.787,701.214 506.659,705.854 510.909,710.495 508.589,727.521 504.336,732.935 
	490.796,733.322 479.194,720.56 473.393,718.237 472.617,695.806 467.591,688.454 451.346,688.454 450.187,676.851 436.261,668.342 
	406.866,665.636 396.033,678.401 396.423,720.56 392.167,725.974 377.083,727.134 362.385,709.729 359.292,700.057 348.071,688.067 
	302.433,691.546 295.473,672.979 285.03,661.76 285.03,627.335 280.002,618.827 247.898,617.667 239.004,626.563 241.711,637.393 
	228.946,649.772 228.56,666.401 225.08,671.429 224.304,692.706 209.994,703.919 182.532,703.533 180.211,707.79 168.605,710.11 
	164.741,702.757 147.721,701.987 140.372,696.186 121.803,695.891 115.71,690.96 93.664,692.409 88.444,687.77 84.38,677.036 
	79.738,669.495 81.479,638.451 72.198,624.238 60.883,626.27 58.562,619.598 49.57,617.567 40.288,610.024 40.575,602.192 
	46.38,600.452 59.143,589.138 59.143,544.465 62.623,541.272 124.123,541.272 "/>
<rect x="234.366" y="279.438" fill="none" width="188.803" height="36.051"/>
<text transform="matrix(1 0 0 1 282.7773 309.3188)" fill="#FAEBCC" font-family="'GillSansStd-BoldCondensed'" font-size="36" letter-spacing="1">5,258</text>
<rect x="590.863" y="404.941" fill="none" width="188.803" height="36.051"/>
<text transform="matrix(1 0 0 1 639.2744 434.8223)" fill="#FAEBCC" font-family="'GillSansStd-BoldCondensed'" font-size="36" letter-spacing="1">4,864</text>
<rect x="196.863" y="562.941" fill="none" width="188.803" height="36.051"/>
<text transform="matrix(1 0 0 1 245.2744 592.8223)" fill="#FAEBCC" font-family="'GillSansStd-BoldCondensed'" font-size="36" letter-spacing="1">4,500</text>
<rect x="89.279" y="403.76" fill="none" width="196.801" height="41.654"/>
<text transform="matrix(1 0 0 1 141.6895 433.6396)" fill="#0E2840" font-family="'GillSansStd-BoldCondensed'" font-size="36" letter-spacing="1">5,445</text>
<g>
	<path fill="#FAEBCC" d="M440.874,462.096l-1.827-13.286l0.33-0.046c1.184,1.004,11.542,6.238,14.736,5.8
		c1.746-0.24,2.903-1.656,2.671-3.343c-0.17-1.237-0.906-2.578-2.079-3.951l3.736-0.514c1.298,1.634,2.017,3.283,2.271,5.121
		c0.485,3.524-1.513,6.409-4.767,6.856c-2.712,0.374-6.029-0.521-11.891-3.644l0.887,6.446L440.874,462.096z"/>
	<path fill="#FAEBCC" d="M456.787,465.066c3.281-0.452,5.992,1.844,6.489,5.461c0.487,3.524-1.539,6.443-4.792,6.892
		c-2.02,0.278-3.719-0.474-4.943-2.236c-0.663,2.546-2.045,3.872-4.426,4.199c-2.529,0.349-6.286-1.068-6.975-6.07
		c-0.654-4.76,2.137-7.231,5.029-7.629c2.441-0.336,4.061,0.516,5.451,2.811C453.359,466.488,454.766,465.344,456.787,465.066z
		 M445.042,472.973c0.186,1.355,1.503,2.005,3.522,1.727c2.047-0.281,3.171-1.266,2.984-2.621c-0.189-1.387-1.538-2.029-3.647-1.739
		C445.943,470.608,444.854,471.618,445.042,472.973z M454.269,471.766c0.162,1.175,1.329,1.629,3.438,1.339
		c1.929-0.265,2.834-1.034,2.669-2.241c-0.163-1.174-1.247-1.7-3.174-1.434C455.062,469.723,454.095,470.502,454.269,471.766z"/>
	<path fill="#FAEBCC" d="M440.111,484.89c0.977,0.849,2.093,1.154,3.891,1.062c0.273-1.144,1.064-1.866,2.148-2.015
		c1.325-0.183,2.523,0.728,2.708,2.053c0.231,1.687-0.997,3.021-3.075,3.307c-2.832,0.39-5.096-1.108-6.425-4.301L440.111,484.89z"
		/>
	<path fill="#FAEBCC" d="M449.42,493.647c-0.406,1.285-0.507,2.557-0.337,3.792c0.294,2.139,1.702,3.45,3.449,3.21
		c1.777-0.245,2.681-1.934,2.337-4.436c-0.104-0.753-0.305-1.553-0.603-2.373l11.718-1.612l1.464,10.635l-4.067,0.561l-0.914-6.658
		l-4.038,0.555c0.579,4.434-1.429,7.471-5.224,7.993c-3.917,0.538-6.953-2.112-7.579-6.661c-0.207-1.507-0.159-2.956,0.18-4.507
		L449.42,493.647z"/>
	<path fill="#FAEBCC" d="M468.742,512.267l0.642,4.668l-20.575,2.831l-0.645-4.669L468.742,512.267z"/>
	<path fill="#FAEBCC" d="M454.439,527.68c-0.633,1.867-0.785,2.993-0.618,4.199c0.28,2.049,1.612,3.247,3.328,3.011
		c1.687-0.232,2.759-1.822,2.267-4.271l3.436-0.474c0.205,2.153,1.38,3.341,2.948,3.125c1.507-0.207,2.272-1.54,2.036-3.257
		c-0.157-1.146-0.646-2.245-1.606-3.647l3.678-0.506c1.012,2.01,1.407,3.091,1.622,4.657c0.535,3.886-1.353,6.909-4.636,7.361
		c-2.079,0.286-3.538-0.496-4.795-2.502c-0.612,2.478-2.138,3.885-4.576,4.221c-3.588,0.493-6.554-2.107-7.13-6.296
		c-0.202-1.475-0.099-2.962,0.372-5.116L454.439,527.68z"/>
</g>
<g>
	<path fill="#FAEBCC" d="M505.126,418.52l-1.828-13.285l0.331-0.046c1.182,1.003,11.541,6.24,14.735,5.801
		c1.747-0.24,2.903-1.658,2.671-3.345c-0.17-1.236-0.908-2.577-2.078-3.95l3.734-0.514c1.3,1.633,2.018,3.284,2.271,5.122
		c0.485,3.523-1.513,6.408-4.768,6.855c-2.71,0.373-6.025-0.521-11.889-3.646l0.887,6.447L505.126,418.52z"/>
	<path fill="#FAEBCC" d="M526.928,424.609l0.645,4.669l-20.576,2.831l-0.644-4.671L526.928,424.609z"/>
	<path fill="#FAEBCC" d="M504.363,441.315c0.976,0.847,2.092,1.153,3.89,1.06c0.274-1.142,1.065-1.863,2.148-2.014
		c1.325-0.183,2.524,0.728,2.706,2.053c0.232,1.687-0.994,3.022-3.074,3.309c-2.831,0.389-5.094-1.11-6.424-4.303L504.363,441.315z"
		/>
	<path fill="#FAEBCC" d="M526.985,455.148l-1.044-7.592l4.066-0.561l1.832,13.316l-0.902,0.124l-20.927-4.397l1.097-4.295
		L526.985,455.148z"/>
	<path fill="#FAEBCC" d="M513.557,479.805l-1.828-13.285l0.33-0.046c1.184,1.004,11.542,6.241,14.736,5.802
		c1.746-0.24,2.902-1.658,2.671-3.346c-0.172-1.235-0.907-2.575-2.079-3.95l3.735-0.515c1.3,1.634,2.018,3.284,2.271,5.121
		c0.484,3.525-1.513,6.409-4.769,6.856c-2.71,0.374-6.026-0.521-11.89-3.643l0.888,6.447L513.557,479.805z"/>
	<path fill="#FAEBCC" d="M520.484,490.889l-1.074-7.803l3.344-0.461l13.301,6.306l0.572,4.158l-12.354,1.698l0.248,1.807
		l-3.193,0.438l-0.248-1.806l-5.303,0.73l-0.597-4.338L520.484,490.889z M530.787,489.472l-0.009-0.061l-7.744-3.631l0.643,4.67
		L530.787,489.472z"/>
</g>
</svg>
