<?xml version="1.0" encoding="utf-8"?>
<!-- Generator: Adobe Illustrator 16.0.0, SVG Export Plug-In . SVG Version: 6.00 Build 0)  -->
<!DOCTYPE svg PUBLIC "-//W3C//DTD SVG 1.1//EN" "http://www.w3.org/Graphics/SVG/1.1/DTD/svg11.dtd">
<svg version="1.1" id="Layer_1" xmlns="http://www.w3.org/2000/svg" xmlns:xlink="http://www.w3.org/1999/xlink" x="0px" y="0px"
	 width="885.088px" height="858.085px" viewBox="0 0 885.088 858.085" enable-background="new 0 0 885.088 858.085"
	 xml:space="preserve">
<polygon fill="#718699" points="497.588,249.98 498.748,231.414 487.144,232.576 484.828,228.318 481.347,227.16 482.118,212.85 
	476.707,209.752 476.707,195.443 463.94,195.443 460.46,201.63 450.789,202.02 447.698,209.367 403.988,209.367 398.96,203.181 
	369.177,201.63 344.424,159.856 329.338,158.698 329.338,129.303 302.067,129.303 302.067,86.951 278.859,77.087 258.552,68.384 
	248.109,41.696 231.863,41.696 204.596,58.521 186.611,60.262 186.611,97.394 142.517,97.394 137.293,107.256 96.1,107.256 
	84.499,120.02 71.734,118.859 51.429,139.167 42.723,146.127 42.723,207.048 49.687,210.528 49.687,245.339 67.092,261.005 
	121.63,261.005 136.134,273.768 149.48,270.867 161.663,278.99 187.191,278.99 187.191,302.778 197.635,308.579 195.894,319.022 
	191.252,322.502 192.413,337.588 216.2,338.75 223.161,345.131 219.681,371.239 238.826,374.139 259.132,390.964 255.072,442.022 
	249.269,446.083 249.85,463.488 293.364,464.067 299.746,469.869 296.843,498.299 407.658,500.04 419.261,486.116 412.88,478.573 
	412.88,421.713 429.126,403.729 429.126,391.547 442.47,378.78 454.074,379.36 476.119,363.116 483.664,356.734 481.342,320.182 
	473.801,305.098 461.036,299.296 456.974,251.142 "/>
<polygon fill="#415D77" points="497.588,249.98 524.281,249.98 535.883,231.414 538.204,208.981 586.166,208.208 605.505,179.583 
	609.373,161.017 635.676,159.472 641.862,166.434 641.862,183.456 656.562,185 681.314,206.661 728.504,209.752 729.274,226 
	749.39,249.205 759.445,250.754 760.995,270.867 791.933,273.187 796.577,280.926 788.843,288.658 795.03,290.978 817.461,291.754 
	835.256,308 846.087,316.506 846.087,328.112 859.236,342.036 856.145,348.226 849.181,352.87 849.952,389.224 842.991,393.092 
	841.444,438.734 836.803,447.243 836.803,459.62 821.332,472.77 816.692,533.885 832.936,539.296 832.162,578.749 805.858,594.222 
	794.255,602.729 786.523,622.844 760.218,624.392 744.75,615.11 707.618,613.565 691.371,619.751 680.54,639.09 669.71,642.957 
	583.069,646.055 550.58,622.073 546.713,615.885 563.734,606.602 564.502,598.863 582.299,590.356 583.069,569.471 576.108,563.277 
	559.864,563.277 559.092,498.299 547.488,489.016 558.316,472 558.316,421.713 553.675,414.753 553.675,384.581 534.333,373.753 
	534.333,367.567 531.623,360.606 518.861,360.606 504.554,369.888 482.118,368.342 476.119,363.116 483.664,356.734 
	481.342,320.182 473.801,305.098 461.036,299.296 456.974,251.142 "/>
<polygon fill="#123555" points="407.658,500.04 410.95,512.615 418.298,515.708 416.368,541.236 429.129,553.225 427.97,558.643 
	432.611,563.285 446.921,563.285 453.499,568.695 469.744,569.856 474.385,563.668 489.469,564.055 493.337,559.028 
	493.337,444.153 488.309,440.669 488.309,368.727 482.118,368.342 476.119,363.116 454.074,379.36 442.47,378.78 429.126,391.547 
	429.126,403.729 412.88,421.713 412.88,478.573 419.261,486.116 "/>
<polygon fill="#0E2840" points="488.309,368.727 504.554,369.888 518.861,360.606 531.623,360.606 534.333,367.567 534.333,373.753 
	553.675,384.581 553.675,414.753 558.316,421.713 558.316,472 547.488,489.016 559.092,498.299 559.864,563.277 535.107,564.048 
	530.466,569.661 493.531,571.207 489.469,564.055 493.337,559.028 493.337,444.153 488.309,440.669 "/>
<polygon fill="#D0D7DD" points="192.413,337.588 132.464,332.752 110.802,348.226 106.159,369.883 120.86,379.94 120.086,393.865 
	106.55,405.468 106.935,423.26 119.7,432.932 121.246,441.827 128.207,444.536 126.663,451.5 150.254,474.708 149.869,490.566 
	160.697,502.561 175.783,515.708 183.133,517.253 195.897,529.631 202.86,533.499 251.595,535.049 260.102,520.735 271.708,516.868 
	281.375,501.398 296.843,498.299 299.746,469.869 293.364,464.067 249.85,463.488 249.269,446.083 255.072,442.022 259.132,390.964 
	238.826,374.139 219.681,371.239 223.161,345.131 216.2,338.75 "/>
<polygon fill="#A0AEBB" points="132.073,533.885 185.74,533.885 194.443,529.049 202.86,533.499 250.719,534.85 260.102,520.735 
	271.708,516.868 281.375,501.398 296.843,498.299 407.658,500.04 410.95,512.615 418.298,515.708 416.368,541.236 429.129,553.225 
	427.97,558.643 432.611,563.285 446.921,563.285 453.499,568.695 469.744,569.856 474.385,563.668 489.469,564.055 493.531,571.207 
	530.466,569.661 535.107,564.048 576.108,563.277 583.069,569.471 582.299,590.356 564.502,598.863 563.734,606.602 
	546.713,615.885 550.58,622.073 551.74,625.749 540.136,631.934 536.46,635.22 536.46,647.986 493.817,647.986 487.291,652.771 
	487.581,659.588 492.658,664.086 507.595,665.536 511.367,659.008 533.847,659.008 538.053,659.588 540.956,665.97 548.208,665.97 
	558.701,677.383 558.701,690.149 552.898,695.565 511.126,694.788 504.935,699.432 508.807,704.072 513.057,708.713 
	510.737,725.739 506.484,731.153 492.944,731.541 481.342,718.778 475.541,716.456 474.765,694.024 469.739,686.672 
	453.494,686.672 452.334,675.069 438.409,666.56 409.014,663.854 398.181,676.62 398.571,718.778 394.315,724.192 379.231,725.352 
	364.533,707.948 361.44,698.275 350.219,686.286 304.581,689.764 297.621,671.198 287.178,659.978 287.178,625.553 282.15,617.045 
	250.046,615.885 241.152,624.782 243.859,635.611 231.094,647.991 230.708,664.62 227.228,669.647 226.452,690.924 212.142,702.137 
	184.68,701.751 182.359,706.008 170.753,708.329 166.889,700.975 149.869,700.206 142.52,694.404 123.951,694.109 117.858,689.178 
	95.812,690.627 90.592,685.988 86.528,675.254 81.886,667.713 83.627,636.669 74.346,622.457 63.031,624.488 60.71,617.816 
	51.718,615.786 42.436,608.243 42.723,600.411 48.528,598.67 61.291,587.356 61.291,542.683 64.771,539.491 126.271,539.491 "/>
<rect x="229.014" y="277.657" fill="none" width="188.803" height="36.051"/>
<text transform="matrix(1 0 0 1 255.3765 307.5371)" fill="#FAEBCC" font-family="'GillSansStd-BoldCondensed'" font-size="36" letter-spacing="1">haidian</text>
<rect x="593.011" y="403.16" fill="none" width="188.803" height="36.051"/>
<text transform="matrix(1 0 0 1 598.9614 433.0405)" fill="#FAEBCC" font-family="'GillSansStd-BoldCondensed'" font-size="36" letter-spacing="1">chaoyang</text>
<rect x="199.011" y="561.16" fill="none" width="188.803" height="36.051"/>
<text transform="matrix(1 0 0 1 225.1929 591.0405)" fill="#FAEBCC" font-family="'GillSansStd-BoldCondensed'" font-size="36" letter-spacing="1">fengtai</text>
<rect x="509.161" y="458.477" fill="none" width="40.801" height="41.653"/>
<text transform="matrix(1 0 0 1 520.1831 488.3569)" fill="#FAEBCC" font-family="'GillSansStd-BoldCondensed'" font-size="36" letter-spacing="1">1</text>
<rect x="437.667" y="459.97" fill="none" width="40.801" height="41.654"/>
<text transform="matrix(1 0 0 1 448.6899 489.8511)" fill="#FAEBCC" font-family="'GillSansStd-BoldCondensed'" font-size="36" letter-spacing="1">2</text>
<rect x="172.427" y="417.978" fill="none" width="40.801" height="41.654"/>
<text transform="matrix(1 0 0 1 183.4497 447.8589)" fill="#0E2840" font-family="'GillSansStd-BoldCondensed'" font-size="36" letter-spacing="1">3</text>
<path fill="#123555" d="M835.225,785.61c0,4.754-5.373,8.608-12,8.608h-158c-6.627,0-12-3.854-12-8.608v-81.783
	c0-4.754,5.373-8.608,12-8.608h158c6.627,0,12,3.854,12,8.608V785.61z"/>
<rect x="666.667" y="711.469" fill="none" width="158.628" height="83.316"/>
<text transform="matrix(1 0 0 1 666.6675 728.8999)"><tspan x="0" y="0" fill="#FAEBCC" font-family="'GillSansStd-BoldCondensed'" font-size="21" letter-spacing="1">1. dongcheng</tspan><tspan x="0" y="25.199" fill="#FAEBCC" font-family="'GillSansStd-BoldCondensed'" font-size="21" letter-spacing="1">2. xicheng</tspan><tspan x="0" y="50.4" fill="#FAEBCC" font-family="'GillSansStd-BoldCondensed'" font-size="21" letter-spacing="1">3. shijingshan</tspan></text>
</svg>
