<?xml version="1.0" encoding="utf-8"?>
<!-- Generator: Adobe Illustrator 16.0.0, SVG Export Plug-In . SVG Version: 6.00 Build 0)  -->
<!DOCTYPE svg PUBLIC "-//W3C//DTD SVG 1.1//EN" "http://www.w3.org/Graphics/SVG/1.1/DTD/svg11.dtd">
<svg version="1.1" id="Layer_1" xmlns="http://www.w3.org/2000/svg" xmlns:xlink="http://www.w3.org/1999/xlink" x="0px" y="0px"
	 width="885.088px" height="858.086px" viewBox="0 0 885.088 858.086" enable-background="new 0 0 885.088 858.086"
	 xml:space="preserve">
<polygon fill="#718699" points="513.363,240.762 514.522,222.196 502.919,223.358 500.603,219.1 497.122,217.941 497.893,203.632 
	492.481,200.534 492.481,186.225 479.715,186.225 476.235,192.412 466.563,192.802 463.473,200.148 419.763,200.148 
	414.735,193.963 384.952,192.412 360.199,150.638 345.113,149.479 345.113,120.085 317.842,120.085 317.842,77.732 294.634,67.869 
	274.327,59.166 263.884,32.478 247.638,32.478 220.371,49.302 202.386,51.043 202.386,88.176 158.292,88.176 153.068,98.038 
	111.875,98.038 100.273,110.802 87.509,109.641 67.204,129.948 58.498,136.909 58.498,197.83 65.462,201.31 65.462,236.121 
	82.867,251.787 137.405,251.787 151.909,264.55 165.255,261.648 177.438,269.771 202.966,269.771 202.966,293.56 213.41,299.36 
	211.669,309.804 207.027,313.284 208.188,328.37 231.975,329.531 238.936,335.913 235.456,362.021 254.601,364.921 274.907,381.746 
	270.847,432.804 265.044,436.864 265.625,454.27 309.139,454.849 315.521,460.65 312.618,489.081 423.433,490.821 435.036,476.897 
	428.655,469.354 428.655,412.495 444.901,394.511 444.901,382.329 458.245,369.562 469.849,370.142 491.894,353.897 
	499.438,347.516 497.117,310.964 489.576,295.88 476.811,290.078 472.749,241.924 "/>
<polygon fill="#415D77" points="513.363,240.762 540.056,240.762 551.658,222.196 553.979,199.763 601.94,198.99 621.28,170.365 
	625.147,151.799 651.451,150.253 657.637,157.216 657.637,174.237 672.337,175.782 697.089,197.443 744.279,200.534 
	745.049,216.781 765.165,239.986 775.22,241.536 776.77,261.648 807.708,263.969 812.352,271.708 804.618,279.44 810.805,281.76 
	833.236,282.536 851.031,298.781 861.862,307.288 861.862,318.894 875.011,332.817 871.92,339.008 864.956,343.651 865.727,380.006 
	858.766,383.874 857.219,429.516 852.578,438.024 852.578,450.401 837.106,463.552 832.467,524.667 848.711,530.078 847.937,569.53 
	821.633,585.004 810.03,593.511 802.298,613.626 775.993,615.174 760.525,605.892 723.393,604.347 707.146,610.533 696.314,629.872 
	685.485,633.738 598.844,636.837 566.354,612.854 562.488,606.667 579.509,597.384 580.277,589.645 598.074,581.138 
	598.844,560.253 591.883,554.059 575.639,554.059 574.867,489.081 563.263,479.798 574.091,462.782 574.091,412.495 569.45,405.535 
	569.45,375.362 550.108,364.535 550.108,358.349 547.397,351.388 534.636,351.388 520.329,360.67 497.893,359.124 491.894,353.897 
	499.438,347.516 497.117,310.964 489.576,295.88 476.811,290.078 472.749,241.924 "/>
<polygon fill="#123555" points="423.433,490.821 426.725,503.396 434.073,506.489 432.143,532.018 444.904,544.007 443.745,549.425 
	448.386,554.066 462.696,554.066 469.273,559.477 485.519,560.638 490.16,554.45 505.244,554.837 509.112,549.81 509.112,434.935 
	504.084,431.451 504.084,359.509 497.893,359.124 491.894,353.897 469.849,370.142 458.245,369.562 444.901,382.329 
	444.901,394.511 428.655,412.495 428.655,469.354 435.036,476.897 "/>
<polygon fill="#0E2840" points="504.084,359.509 520.329,360.67 534.636,351.388 547.397,351.388 550.108,358.349 550.108,364.535 
	569.45,375.362 569.45,405.535 574.091,412.495 574.091,462.782 563.263,479.798 574.867,489.081 575.639,554.059 550.882,554.83 
	546.241,560.442 509.306,561.988 505.244,554.837 509.112,549.81 509.112,434.935 504.084,431.451 "/>
<polygon fill="#D0D7DD" points="208.188,328.37 148.239,323.534 126.577,339.008 121.934,360.665 136.635,370.722 135.861,384.646 
	122.325,396.25 122.71,414.042 135.475,423.714 137.021,432.608 143.981,435.317 142.438,442.281 166.029,465.489 165.644,481.348 
	176.472,493.343 191.558,506.489 198.908,508.035 211.672,520.413 218.635,524.28 267.37,525.831 275.877,511.517 287.482,507.649 
	297.149,492.18 312.618,489.081 315.521,460.65 309.139,454.849 265.625,454.27 265.044,436.864 270.847,432.804 274.907,381.746 
	254.601,364.921 235.456,362.021 238.936,335.913 231.975,329.531 "/>
<polygon fill="#A0AEBB" points="147.848,524.667 201.515,524.667 210.218,519.831 218.635,524.28 266.494,525.632 275.877,511.517 
	287.482,507.649 297.149,492.18 312.618,489.081 423.433,490.821 426.725,503.396 434.073,506.489 432.143,532.018 444.904,544.007 
	443.745,549.425 448.386,554.066 462.696,554.066 469.273,559.477 485.519,560.638 490.16,554.45 505.244,554.837 509.306,561.988 
	546.241,560.442 550.882,554.83 591.883,554.059 598.844,560.253 598.074,581.138 580.277,589.645 579.509,597.384 562.488,606.667 
	566.354,612.854 567.515,616.53 555.911,622.716 552.235,626.002 552.235,638.768 509.592,638.768 503.065,643.553 503.355,650.37 
	508.433,654.868 523.37,656.317 527.142,649.79 549.622,649.79 553.828,650.37 556.73,656.752 563.982,656.752 574.476,668.165 
	574.476,680.931 568.673,686.347 526.901,685.569 520.71,690.214 524.582,694.854 528.832,699.495 526.512,716.521 522.259,721.935 
	508.719,722.322 497.117,709.56 491.315,707.237 490.54,684.806 485.514,677.454 469.269,677.454 468.109,665.851 454.184,657.342 
	424.789,654.636 413.956,667.401 414.346,709.56 410.09,714.974 395.006,716.134 380.308,698.729 377.215,689.057 365.994,677.067 
	320.355,680.546 313.396,661.979 302.953,650.76 302.953,616.335 297.925,607.827 265.821,606.667 256.927,615.563 259.634,626.393 
	246.869,638.772 246.482,655.401 243.003,660.429 242.227,681.706 227.917,692.919 200.455,692.533 198.134,696.79 186.528,699.11 
	182.664,691.757 165.644,690.987 158.295,685.186 139.726,684.891 133.633,679.96 111.587,681.409 106.367,676.77 102.303,666.036 
	97.661,658.495 99.402,627.451 90.121,613.238 78.806,615.27 76.485,608.598 67.493,606.567 58.211,599.024 58.498,591.192 
	64.303,589.452 77.065,578.138 77.065,533.465 80.546,530.272 142.046,530.272 "/>
<rect x="252.289" y="268.438" fill="none" width="188.803" height="36.051"/>
<text transform="matrix(1 0 0 1 264.0879 298.3188)" fill="#FAEBCC" font-family="'GillSansStd-BoldCondensed'" font-size="36" letter-spacing="1">2,240,000</text>
<rect x="608.786" y="393.941" fill="none" width="188.803" height="36.051"/>
<text transform="matrix(1 0 0 1 620.5859 423.8223)" fill="#FAEBCC" font-family="'GillSansStd-BoldCondensed'" font-size="36" letter-spacing="1">2,290,000</text>
<rect x="214.786" y="551.941" fill="none" width="188.803" height="36.051"/>
<text transform="matrix(1 0 0 1 226.5859 581.8223)" fill="#FAEBCC" font-family="'GillSansStd-BoldCondensed'" font-size="36" letter-spacing="1">1,369,000</text>
<g>
	<path fill="#FAEBCC" d="M470.438,414.917l0.908,3.608l-15.899,3.996l-0.907-3.608L470.438,414.917z"/>
	<path fill="#FAEBCC" d="M454.175,429.967c0.839,0.582,1.741,0.727,3.144,0.497c0.115-0.92,0.674-1.556,1.512-1.767
		c1.023-0.257,2.043,0.353,2.301,1.377c0.327,1.304-0.521,2.457-2.127,2.861c-2.188,0.55-4.093-0.432-5.411-2.822L454.175,429.967z"
		/>
	<path fill="#FAEBCC" d="M461.367,446.076l-2.58-10.265l0.256-0.064c1.014,0.686,9.593,3.899,12.061,3.279
		c1.35-0.339,2.134-1.552,1.807-2.856c-0.24-0.953-0.935-1.941-1.972-2.918l2.887-0.727c1.159,1.169,1.865,2.402,2.222,3.822
		c0.686,2.724-0.633,5.158-3.146,5.79c-2.096,0.526-4.774,0.11-9.644-1.833l1.253,4.981L461.367,446.076z"/>
	<path fill="#FAEBCC" d="M465.766,449.004c-0.336,1.52-0.357,2.416-0.124,3.348c0.397,1.582,1.546,2.407,2.873,2.074
		c1.303-0.328,2.007-1.668,1.41-3.547l2.653-0.667c0.346,1.669,1.371,2.501,2.582,2.196c1.164-0.292,1.651-1.404,1.317-2.731
		c-0.222-0.885-0.701-1.704-1.575-2.723l2.84-0.714c0.968,1.49,1.371,2.304,1.676,3.514c0.754,3.004-0.465,5.537-3.002,6.176
		c-1.605,0.403-2.818-0.084-3.979-1.55c-0.265,1.998-1.34,3.232-3.226,3.706c-2.771,0.697-5.322-1.088-6.136-4.322
		c-0.286-1.142-0.334-2.318-0.15-4.046L465.766,449.004z"/>
	<path fill="#FAEBCC" d="M469.106,462.294c-0.336,1.521-0.358,2.416-0.124,3.349c0.397,1.581,1.546,2.406,2.873,2.072
		c1.303-0.327,2.006-1.666,1.41-3.547l2.653-0.666c0.346,1.67,1.371,2.501,2.581,2.196c1.164-0.292,1.652-1.403,1.318-2.731
		c-0.223-0.885-0.701-1.705-1.575-2.722l2.841-0.714c0.967,1.488,1.37,2.304,1.674,3.514c0.755,3.002-0.464,5.536-3.001,6.174
		c-1.606,0.404-2.818-0.083-3.979-1.549c-0.265,1.997-1.34,3.232-3.226,3.706c-2.771,0.696-5.322-1.087-6.135-4.322
		c-0.287-1.142-0.336-2.317-0.151-4.046L469.106,462.294z"/>
	<path fill="#FAEBCC" d="M466.075,477.311c0.839,0.58,1.741,0.725,3.144,0.496c0.115-0.92,0.674-1.555,1.512-1.766
		c1.023-0.257,2.043,0.353,2.301,1.376c0.328,1.305-0.521,2.458-2.127,2.862c-2.188,0.55-4.093-0.432-5.412-2.822L466.075,477.311z"
		/>
	<path fill="#FAEBCC" d="M488.229,484.808c0.913,3.631-2.093,6.046-6.865,7.245c-4.771,1.2-8.539,0.487-9.464-3.189
		c-0.849-3.375,1.575-5.939,6.837-7.262C483.997,480.279,487.363,481.363,488.229,484.808z M474.646,488.174
		c0.333,1.326,1.992,1.23,5.81,0.271c3.352-0.843,5.377-1.551,5.015-2.992c-0.375-1.491-2.708-1.027-5.851-0.238
		C476.454,486.012,474.271,486.683,474.646,488.174z"/>
	<path fill="#FAEBCC" d="M491.569,498.098c0.913,3.632-2.093,6.046-6.866,7.245c-4.771,1.2-8.539,0.488-9.463-3.189
		c-0.849-3.376,1.575-5.94,6.836-7.263C487.338,493.568,490.703,494.653,491.569,498.098z M477.986,501.463
		c0.334,1.327,1.992,1.231,5.811,0.271c3.352-0.842,5.377-1.549,5.014-2.992c-0.374-1.49-2.707-1.027-5.85-0.237
		C479.795,499.301,477.612,499.973,477.986,501.463z"/>
	<path fill="#FAEBCC" d="M494.91,511.389c0.912,3.631-2.094,6.045-6.865,7.245c-4.771,1.199-8.539,0.487-9.464-3.189
		c-0.849-3.376,1.575-5.939,6.836-7.262C490.679,506.86,494.044,507.943,494.91,511.389z M481.328,514.754
		c0.333,1.326,1.992,1.232,5.81,0.272c3.352-0.843,5.377-1.551,5.015-2.993c-0.375-1.49-2.709-1.027-5.852-0.237
		C483.135,512.592,480.953,513.264,481.328,514.754z"/>
</g>
<rect x="107.202" y="392.76" fill="none" width="196.801" height="41.654"/>
<text transform="matrix(1 0 0 1 139.0566 422.6396)" fill="#0E2840" font-family="'GillSansStd-BoldCondensed'" font-size="36" letter-spacing="1">489,000</text>
<g>
	<path fill="#FAEBCC" d="M533.064,423.706c2.561-0.613,4.882,0.992,5.557,3.811c0.656,2.747-0.716,5.211-3.253,5.818
		c-1.573,0.376-2.974-0.083-4.08-1.383c-0.325,2.063-1.315,3.221-3.17,3.664c-1.973,0.472-5.052-0.355-5.984-4.256
		c-0.888-3.71,1.126-5.881,3.38-6.42c1.902-0.455,3.251,0.093,4.527,1.797C530.469,425.097,531.491,424.082,533.064,423.706z
		 M524.4,430.868c0.253,1.058,1.344,1.466,2.918,1.09c1.596-0.382,2.406-1.246,2.154-2.303c-0.259-1.08-1.373-1.484-3.017-1.091
		C524.93,428.929,524.148,429.812,524.4,430.868z M531.598,429.196c0.219,0.916,1.178,1.183,2.822,0.789
		c1.501-0.359,2.158-1.037,1.934-1.977c-0.219-0.915-1.117-1.247-2.619-0.888C532.065,427.521,531.361,428.21,531.598,429.196z"/>
	<path fill="#FAEBCC" d="M536.273,437.117c2.561-0.612,4.881,0.992,5.555,3.811c0.658,2.749-0.715,5.212-3.252,5.818
		c-1.573,0.377-2.974-0.083-4.08-1.383c-0.324,2.063-1.314,3.22-3.17,3.663c-1.973,0.473-5.052-0.355-5.984-4.254
		c-0.888-3.711,1.127-5.88,3.381-6.419c1.902-0.455,3.25,0.091,4.526,1.796C533.677,438.508,534.699,437.494,536.273,437.117z
		 M527.609,444.28c0.252,1.057,1.344,1.467,2.918,1.09c1.596-0.382,2.406-1.246,2.153-2.304c-0.259-1.079-1.372-1.485-3.017-1.092
		C528.139,442.34,527.355,443.223,527.609,444.28z M534.807,442.607c0.219,0.916,1.178,1.184,2.821,0.79
		c1.501-0.359,2.159-1.037,1.935-1.977c-0.22-0.917-1.119-1.248-2.62-0.889C535.273,440.932,534.57,441.622,534.807,442.607z"/>
	<path fill="#FAEBCC" d="M529.886,462.831l-2.478-10.357l0.258-0.062c1.014,0.702,9.606,4.033,12.096,3.438
		c1.362-0.326,2.165-1.536,1.851-2.851c-0.23-0.964-0.918-1.966-1.95-2.96l2.913-0.697c1.153,1.188,1.85,2.438,2.192,3.87
		c0.657,2.748-0.697,5.183-3.233,5.789c-2.114,0.506-4.804,0.057-9.681-1.955l1.203,5.026L529.886,462.831z"/>
	<path fill="#FAEBCC" d="M527.849,467.491c0.837,0.594,1.743,0.75,3.156,0.535c0.126-0.924,0.696-1.557,1.54-1.76
		c1.033-0.246,2.053,0.379,2.301,1.412c0.314,1.314-0.553,2.466-2.173,2.854c-2.209,0.528-4.114-0.48-5.412-2.9L527.849,467.491z"/>
	<path fill="#FAEBCC" d="M550.049,475.29c0.877,3.664-2.176,6.057-6.99,7.209c-4.814,1.151-8.598,0.394-9.485-3.316
		c-0.814-3.405,1.654-5.958,6.963-7.228C545.844,470.685,549.217,471.813,550.049,475.29z M536.346,478.519
		c0.32,1.338,1.99,1.263,5.842,0.341c3.381-0.809,5.427-1.497,5.078-2.953c-0.359-1.503-2.713-1.064-5.884-0.306
		C538.189,476.364,535.986,477.016,536.346,478.519z"/>
	<path fill="#FAEBCC" d="M553.257,488.702c0.876,3.663-2.176,6.057-6.99,7.209c-4.814,1.151-8.598,0.393-9.485-3.318
		c-0.814-3.404,1.654-5.957,6.963-7.228C549.051,484.096,552.426,485.226,553.257,488.702z M539.554,491.93
		c0.32,1.339,1.989,1.262,5.843,0.341c3.381-0.809,5.426-1.497,5.078-2.953c-0.359-1.503-2.714-1.064-5.885-0.306
		C541.396,489.775,539.194,490.427,539.554,491.93z"/>
	<path fill="#FAEBCC" d="M556.465,502.113c0.877,3.662-2.176,6.058-6.99,7.209s-8.598,0.392-9.484-3.317
		c-0.814-3.405,1.654-5.958,6.962-7.228C552.26,497.507,555.634,498.638,556.465,502.113z M542.762,505.341
		c0.32,1.339,1.99,1.263,5.842,0.341c3.382-0.809,5.427-1.498,5.079-2.953c-0.36-1.503-2.714-1.063-5.884-0.306
		C544.605,503.187,542.402,503.838,542.762,505.341z"/>
</g>
</svg>
