<?xml version="1.0" encoding="utf-8"?>
<!-- Generator: Adobe Illustrator 16.0.0, SVG Export Plug-In . SVG Version: 6.00 Build 0)  -->
<!DOCTYPE svg PUBLIC "-//W3C//DTD SVG 1.1//EN" "http://www.w3.org/Graphics/SVG/1.1/DTD/svg11.dtd">
<svg version="1.1" id="Layer_1" xmlns="http://www.w3.org/2000/svg" xmlns:xlink="http://www.w3.org/1999/xlink" x="0px" y="0px"
	 width="885.088px" height="858.086px" viewBox="0 0 885.088 858.086" enable-background="new 0 0 885.088 858.086"
	 xml:space="preserve">
<polygon fill="#718699" points="494.108,276.925 495.268,258.359 483.664,259.521 481.348,255.263 477.867,254.104 478.638,239.795 
	473.227,236.697 473.227,222.388 460.46,222.388 456.98,228.575 447.309,228.965 444.218,236.312 400.508,236.312 395.48,230.126 
	365.697,228.575 340.944,186.801 325.858,185.643 325.858,156.248 298.587,156.248 298.587,113.896 275.379,104.032 255.072,95.329 
	244.629,68.641 228.383,68.641 201.116,85.465 183.131,87.207 183.131,124.339 139.037,124.339 133.813,134.201 92.62,134.201 
	81.019,146.965 68.254,145.804 47.949,166.111 39.243,173.072 39.243,233.993 46.207,237.473 46.207,272.284 63.612,287.95 
	118.15,287.95 132.654,300.713 146,297.812 158.183,305.935 183.711,305.935 183.711,329.723 194.155,335.523 192.414,345.967 
	187.772,349.447 188.933,364.533 212.72,365.694 219.681,372.076 216.201,398.184 235.346,401.084 255.652,417.909 251.592,468.967 
	245.789,473.027 246.37,490.433 289.884,491.012 296.266,496.813 293.363,525.244 404.178,526.984 415.781,513.061 409.4,505.518 
	409.4,448.658 425.646,430.674 425.646,418.492 438.99,405.725 450.594,406.305 472.639,390.061 480.184,383.679 477.862,347.127 
	470.321,332.043 457.556,326.241 453.494,278.087 "/>
<polygon fill="#415D77" points="494.108,276.925 520.801,276.925 532.403,258.359 534.724,235.926 582.686,235.153 602.025,206.528 
	605.893,187.962 632.196,186.417 638.382,193.379 638.382,210.4 653.082,211.945 677.834,233.606 725.024,236.697 725.794,252.944 
	745.91,276.149 755.965,277.699 757.515,297.812 788.453,300.132 793.097,307.871 785.363,315.603 791.55,317.923 813.981,318.699 
	831.776,334.944 842.607,343.451 842.607,355.056 855.756,368.98 852.665,375.171 845.701,379.814 846.472,416.169 839.511,420.037 
	837.964,465.679 833.323,474.188 833.323,486.564 817.852,499.715 813.212,560.83 829.456,566.241 828.682,605.693 802.378,621.167 
	790.775,629.674 783.043,649.789 756.738,651.337 741.271,642.055 704.138,640.51 687.891,646.696 677.06,666.035 666.23,669.901 
	579.589,673 547.1,649.018 543.233,642.83 560.254,633.547 561.022,625.808 578.819,617.301 579.589,596.416 572.628,590.222 
	556.384,590.222 555.612,525.244 544.008,515.961 554.836,498.945 554.836,448.658 550.195,441.698 550.195,411.525 
	530.854,400.698 530.854,394.512 528.143,387.551 515.381,387.551 501.074,396.833 478.638,395.287 472.639,390.061 
	480.184,383.679 477.862,347.127 470.321,332.043 457.556,326.241 453.494,278.087 "/>
<polygon fill="#123555" points="404.178,526.984 407.47,539.56 414.818,542.652 412.888,568.181 425.649,580.17 424.49,585.588 
	429.131,590.229 443.441,590.229 450.019,595.64 466.264,596.801 470.905,590.613 485.989,591 489.857,585.973 489.857,471.098 
	484.829,467.614 484.829,395.672 478.638,395.287 472.639,390.061 450.594,406.305 438.99,405.725 425.646,418.492 425.646,430.674 
	409.4,448.658 409.4,505.518 415.781,513.061 "/>
<polygon fill="#0E2840" points="484.829,395.672 501.074,396.833 515.381,387.551 528.143,387.551 530.854,394.512 530.854,400.698 
	550.195,411.525 550.195,441.698 554.836,448.658 554.836,498.945 544.008,515.961 555.612,525.244 556.384,590.222 
	531.627,590.993 526.986,596.605 490.051,598.151 485.989,591 489.857,585.973 489.857,471.098 484.829,467.614 "/>
<polygon fill="#D0D7DD" points="188.933,364.533 128.984,359.697 107.322,375.171 102.679,396.828 117.38,406.885 116.606,420.81 
	103.07,432.413 103.455,450.205 116.22,459.877 117.766,468.771 124.727,471.48 123.183,478.444 146.774,501.652 146.389,517.511 
	157.217,529.506 172.303,542.652 179.653,544.198 192.417,556.576 199.38,560.443 248.115,561.994 256.622,547.68 268.228,543.812 
	277.895,528.343 293.363,525.244 296.266,496.813 289.884,491.012 246.37,490.433 245.789,473.027 251.592,468.967 255.652,417.909 
	235.346,401.084 216.201,398.184 219.681,372.076 212.72,365.694 "/>
<polygon fill="#A0AEBB" points="128.593,560.83 182.26,560.83 190.963,555.994 199.38,560.443 247.239,561.795 256.622,547.68 
	268.228,543.812 277.895,528.343 293.363,525.244 404.178,526.984 407.47,539.56 414.818,542.652 412.888,568.181 425.649,580.17 
	424.49,585.588 429.131,590.229 443.441,590.229 450.019,595.64 466.264,596.801 470.905,590.613 485.989,591 490.051,598.151 
	526.986,596.605 531.627,590.993 572.628,590.222 579.589,596.416 578.819,617.301 561.022,625.808 560.254,633.547 543.233,642.83 
	547.1,649.018 548.26,652.693 536.656,658.879 532.98,662.165 532.98,674.931 490.337,674.931 483.811,679.716 484.101,686.533 
	489.178,691.031 504.115,692.48 507.887,685.953 530.367,685.953 534.573,686.533 537.476,692.915 544.728,692.915 555.221,704.328 
	555.221,717.094 549.418,722.51 507.646,721.732 501.455,726.377 505.327,731.017 509.577,735.658 507.257,752.684 503.004,758.098 
	489.464,758.485 477.862,745.723 472.061,743.4 471.285,720.969 466.259,713.617 450.014,713.617 448.854,702.014 434.929,693.505 
	405.534,690.799 394.701,703.564 395.091,745.723 390.835,751.137 375.751,752.297 361.053,734.893 357.96,725.22 346.739,713.23 
	301.101,716.709 294.141,698.143 283.698,686.923 283.698,652.498 278.67,643.99 246.566,642.83 237.672,651.727 240.379,662.556 
	227.614,674.936 227.228,691.564 223.748,696.592 222.972,717.869 208.662,729.082 181.2,728.696 178.879,732.953 167.273,735.273 
	163.409,727.92 146.389,727.15 139.04,721.349 120.471,721.054 114.378,716.123 92.332,717.572 87.112,712.933 83.048,702.199 
	78.406,694.658 80.147,663.614 70.866,649.401 59.551,651.433 57.23,644.761 48.238,642.73 38.956,635.188 39.243,627.355 
	45.048,625.615 57.811,614.301 57.811,569.628 61.291,566.436 122.791,566.436 "/>
<g>
	<g>
		<polygon fill="#D14750" points="38.239,99.338 38.239,151.156 112.016,151.156 131.601,151.156 131.601,99.338 		"/>
		<rect x="124.566" y="148.283" fill="#D14750" width="7.05" height="41.666"/>
	</g>
	<rect x="36.368" y="110.259" fill="none" width="97.696" height="40.501"/>
	<text transform="matrix(1 0 0 1 58.5322 121.8794)"><tspan x="0" y="0" fill="#E1EDD2" font-family="'GillSansStd-BoldCondensed'" font-size="14">Summer</tspan><tspan x="3.137" y="16.8" fill="#E1EDD2" font-family="'GillSansStd-BoldCondensed'" font-size="14">Palace</tspan></text>
</g>
<g>
	<polygon fill="#D14750" stroke="#123555" stroke-miterlimit="10" points="511.585,441.127 511.585,392.182 418.224,392.182 
		418.224,444 492,444 504.551,444 504.551,482.793 511.601,482.793 511.601,441.127 	"/>
	<rect x="414.866" y="402.926" fill="none" width="97.696" height="40.502"/>
	<text transform="matrix(1 0 0 1 438.3604 414.5449)"><tspan x="0" y="0" fill="#E1EDD2" font-family="'GillSansStd-BoldCondensed'" font-size="14">Tian&apos;an </tspan><tspan x="11.676" y="16.801" fill="#E1EDD2" font-family="'GillSansStd-BoldCondensed'" font-size="14">Men</tspan></text>
</g>
<g>
	<polygon fill="#D14750" stroke="#123555" stroke-miterlimit="10" points="527.915,392.625 527.915,343.68 434.554,343.68 
		434.554,395.498 508.33,395.498 520.881,395.498 520.881,434.291 527.931,434.291 527.931,392.625 	"/>
	<rect x="431.865" y="353.926" fill="none" width="97.696" height="40.501"/>
	<text transform="matrix(1 0 0 1 442.0596 365.5454)"><tspan x="0" y="0" fill="#E1EDD2" font-family="'GillSansStd-BoldCondensed'" font-size="14">The palace</tspan><tspan x="11.676" y="16.8" fill="#E1EDD2" font-family="'GillSansStd-BoldCondensed'" font-size="14">museum</tspan></text>
</g>
<g>
	<polygon fill="#D14750" stroke="#123555" stroke-miterlimit="10" points="340.606,419.545 340.606,367.09 247.245,367.09 
		247.245,422.625 321.021,422.625 333.572,422.625 333.572,464.201 340.622,464.201 340.622,419.545 	"/>
	<rect x="257.053" y="372.5" fill="none" width="71.363" height="50.836"/>
	<text transform="matrix(1 0 0 1 268.5283 384.1191)"><tspan x="0" y="0" fill="#E1EDD2" font-family="'GillSansStd-BoldCondensed'" font-size="14">Beijing </tspan><tspan x="-1.666" y="16.801" fill="#E1EDD2" font-family="'GillSansStd-BoldCondensed'" font-size="14">Capital </tspan><tspan x="-2.771" y="33.6" fill="#E1EDD2" font-family="'GillSansStd-BoldCondensed'" font-size="14">Museum</tspan></text>
</g>
<g>
	<polygon fill="#D14750" points="676.582,218.959 676.582,170.014 583.221,170.014 583.221,221.832 656.997,221.832 
		669.548,221.832 669.548,260.625 676.598,260.625 676.598,218.959 	"/>
	<rect x="580.532" y="180.259" fill="none" width="97.696" height="40.502"/>
	<text transform="matrix(1 0 0 1 602.9277 191.8794)"><tspan x="0" y="0" fill="#E1EDD2" font-family="'GillSansStd-BoldCondensed'" font-size="14">798 Art </tspan><tspan x="9.723" y="16.8" fill="#E1EDD2" font-family="'GillSansStd-BoldCondensed'" font-size="14">Zone</tspan></text>
</g>
<g>
	<polygon fill="#D14750" stroke="#123555" stroke-miterlimit="10" points="687.881,291.945 687.881,236.518 541.195,236.518 
		541.195,295.198 657.11,295.198 676.829,295.198 676.829,339.129 687.905,339.129 687.905,291.945 	"/>
	<rect x="547.173" y="243.43" fill="none" width="139.029" height="65.998"/>
	<text transform="matrix(1 0 0 1 565.8262 255.0493)"><tspan x="0" y="0" fill="#E1EDD2" font-family="'GillSansStd-BoldCondensed'" font-size="14">Ullens Center </tspan><tspan x="-15.792" y="16.8" fill="#E1EDD2" font-family="'GillSansStd-BoldCondensed'" font-size="14">for Contemporary </tspan><tspan x="39.08" y="33.6" fill="#E1EDD2" font-family="'GillSansStd-BoldCondensed'" font-size="14">Art</tspan></text>
</g>
<g>
	<polygon fill="#D14750" points="514.916,253.625 514.916,204.68 421.555,204.68 421.555,256.498 495.331,256.498 507.882,256.498 
		507.882,295.291 514.932,295.291 514.932,253.625 	"/>
	<rect x="418.866" y="214.926" fill="none" width="97.696" height="40.502"/>
	<text transform="matrix(1 0 0 1 439.5752 226.5454)"><tspan x="0" y="0" fill="#E1EDD2" font-family="'GillSansStd-BoldCondensed'" font-size="14">Olympic </tspan><tspan x="11.634" y="16.8" fill="#E1EDD2" font-family="'GillSansStd-BoldCondensed'" font-size="14">Park</tspan></text>
</g>
<g>
	<polygon fill="#D14750" stroke="#123555" stroke-miterlimit="10" points="520.512,438.792 520.512,389.847 613.873,389.847 
		613.873,441.665 540.097,441.665 527.546,441.665 527.546,480.458 520.496,480.458 520.496,438.792 	"/>
	<rect x="518.864" y="400.091" fill="none" width="97.696" height="40.504"/>
	<text transform="matrix(1 0 0 1 548.6709 411.7109)"><tspan x="0" y="0" fill="#E1EDD2" font-family="'GillSansStd-BoldCondensed'" font-size="14">shijia </tspan><tspan x="-7.441" y="16.799" fill="#E1EDD2" font-family="'GillSansStd-BoldCondensed'" font-size="14">hutong</tspan></text>
</g>
<g>
	<polygon fill="#D14750" stroke="#123555" stroke-miterlimit="10" points="617.582,365.958 617.582,317.013 524.221,317.013 
		524.221,368.832 597.997,368.832 610.548,368.832 610.548,407.625 617.598,407.625 617.598,365.958 	"/>
	<rect x="521.532" y="327.257" fill="none" width="97.696" height="40.504"/>
	<text transform="matrix(1 0 0 1 549.5762 338.877)"><tspan x="0" y="0" fill="#E1EDD2" font-family="'GillSansStd-BoldCondensed'" font-size="14">Ghost</tspan><tspan x="-2.086" y="16.8" fill="#E1EDD2" font-family="'GillSansStd-BoldCondensed'" font-size="14">street</tspan></text>
</g>
<g>
	<polygon fill="#D14750" stroke="#123555" stroke-miterlimit="10" points="395.595,365.107 395.595,316.162 302.233,316.162 
		302.233,367.98 376.01,367.98 388.561,367.98 388.561,406.773 395.61,406.773 395.61,365.107 	"/>
	<rect x="298.876" y="326.906" fill="none" width="97.696" height="40.502"/>
	<text transform="matrix(1 0 0 1 324.8203 338.5259)"><tspan x="0" y="0" fill="#E1EDD2" font-family="'GillSansStd-BoldCondensed'" font-size="14">Shicha </tspan><tspan x="-12.403" y="16.8" fill="#E1EDD2" font-family="'GillSansStd-BoldCondensed'" font-size="14">Lake Park</tspan></text>
</g>
<g>
	<polygon fill="#D14750" stroke="#123555" stroke-miterlimit="10" points="419.442,412.357 419.442,363.412 326.081,363.412 
		326.081,415.23 399.857,415.23 412.408,415.23 412.408,454.023 419.458,454.023 419.458,412.357 	"/>
	<rect x="322.724" y="374.156" fill="none" width="97.696" height="40.502"/>
	<text transform="matrix(1 0 0 1 345.6787 385.7754)"><tspan x="0" y="0" fill="#E1EDD2" font-family="'GillSansStd-BoldCondensed'" font-size="14">nanluo</tspan><tspan x="-2.975" y="16.801" fill="#E1EDD2" font-family="'GillSansStd-BoldCondensed'" font-size="14">guxiang</tspan></text>
</g>
<g>
	<polygon fill="#D14750" stroke="#123555" stroke-miterlimit="10" points="528.273,493.201 528.273,444.256 434.912,444.256 
		434.912,496.074 508.688,496.074 521.239,496.074 521.239,534.867 528.289,534.867 528.289,493.201 	"/>
	<rect x="441.22" y="455" fill="none" width="81.03" height="31.836"/>
	<text transform="matrix(1 0 0 1 454.5469 466.6191)"><tspan x="0" y="0" fill="#E1EDD2" font-family="'GillSansStd-BoldCondensed'" font-size="14">Tiantan </tspan><tspan x="10.683" y="16.801" fill="#E1EDD2" font-family="'GillSansStd-BoldCondensed'" font-size="14">Park</tspan></text>
</g>
<g>
	<polygon fill="#D14750" stroke="#123555" stroke-miterlimit="10" points="423.94,500.534 423.94,451.589 330.579,451.589 
		330.579,503.407 404.355,503.407 416.906,503.407 416.906,542.2 423.956,542.2 423.956,500.534 	"/>
	<rect x="336.887" y="470.333" fill="none" width="81.03" height="23.836"/>
	<text transform="matrix(1 0 0 1 338.6787 481.9531)" fill="#E1EDD2" font-family="'GillSansStd-BoldCondensed'" font-size="14">Back Lakes</text>
</g>
<g>
	<polygon fill="#D14750" stroke="#123555" stroke-miterlimit="10" points="519.928,500.201 519.928,451.256 613.289,451.256 
		613.289,503.074 539.513,503.074 526.962,503.074 526.962,541.867 519.912,541.867 519.912,500.201 	"/>
	<rect x="511.202" y="453.25" fill="none" width="109.03" height="49.836"/>
	<text transform="matrix(1 0 0 1 553.6426 464.8691)"><tspan x="0" y="0" fill="#E1EDD2" font-family="'GillSansStd-BoldCondensed'" font-size="14">the </tspan><tspan x="-24.346" y="16.801" fill="#E1EDD2" font-family="'GillSansStd-BoldCondensed'" font-size="14">Forbidden </tspan><tspan x="-1.96" y="33.6" fill="#E1EDD2" font-family="'GillSansStd-BoldCondensed'" font-size="14">City</tspan></text>
</g>
<g>
	<polygon fill="#D14750" stroke="#123555" stroke-miterlimit="10" points="733.249,425.625 733.249,376.68 639.888,376.68 
		639.888,428.498 713.664,428.498 726.215,428.498 726.215,467.291 733.265,467.291 733.265,425.625 	"/>
	<rect x="637.199" y="386.924" fill="none" width="97.696" height="40.504"/>
	<text transform="matrix(1 0 0 1 655.0801 398.543)"><tspan x="0" y="0" fill="#E1EDD2" font-family="'GillSansStd-BoldCondensed'" font-size="14">Sanlitun</tspan><tspan x="13.866" y="16.801" fill="#E1EDD2" font-family="'GillSansStd-BoldCondensed'" font-size="14">soho</tspan></text>
</g>
<g>
	<polygon fill="#D14750" stroke="#123555" stroke-miterlimit="10" points="706.249,510.625 706.249,461.68 612.888,461.68 
		612.888,513.498 686.664,513.498 699.215,513.498 699.215,552.291 706.265,552.291 706.265,510.625 	"/>
	<rect x="610.199" y="471.924" fill="none" width="97.696" height="40.504"/>
	<text transform="matrix(1 0 0 1 627.4219 483.543)"><tspan x="0" y="0" fill="#E1EDD2" font-family="'GillSansStd-BoldCondensed'" font-size="14">Olympics</tspan><tspan x="15.12" y="16.801" fill="#E1EDD2" font-family="'GillSansStd-BoldCondensed'" font-size="14">park</tspan></text>
</g>
<g>
	<polygon fill="#D14750" stroke="#123555" stroke-miterlimit="10" points="784.249,471.625 784.249,422.68 690.888,422.68 
		690.888,474.498 764.664,474.498 777.215,474.498 777.215,513.291 784.265,513.291 784.265,471.625 	"/>
	<rect x="688.199" y="432.924" fill="none" width="97.696" height="40.504"/>
	<text transform="matrix(1 0 0 1 713.5771 444.543)"><tspan x="0" y="0" fill="#E1EDD2" font-family="'GillSansStd-BoldCondensed'" font-size="14">shui li </tspan><tspan x="7.104" y="16.801" fill="#E1EDD2" font-family="'GillSansStd-BoldCondensed'" font-size="14">fang</tspan></text>
</g>
<g>
	<polygon fill="#D14750" stroke="#123555" stroke-miterlimit="10" points="176.936,420.479 176.936,364.423 62.244,364.423 
		62.244,423.771 152.876,423.771 168.295,423.771 168.295,468.201 176.955,468.201 176.955,420.479 	"/>
	<rect x="75.386" y="371.167" fill="none" width="88.03" height="50.836"/>
	<text transform="matrix(1 0 0 1 78.4023 382.7871)"><tspan x="0" y="0" fill="#E1EDD2" font-family="'GillSansStd-BoldCondensed'" font-size="14">shijingshan</tspan><tspan x="2.037" y="16.799" fill="#E1EDD2" font-family="'GillSansStd-BoldCondensed'" font-size="14">Amusement</tspan><tspan x="24.493" y="33.6" fill="#E1EDD2" font-family="'GillSansStd-BoldCondensed'" font-size="14">park</tspan></text>
</g>
<g>
	<polygon fill="#D14750" stroke="#123555" stroke-miterlimit="10" points="284.594,248.349 284.594,196.162 185.233,196.162 
		185.233,251.412 263.75,251.412 277.107,251.412 277.107,292.773 284.61,292.773 284.61,248.349 	"/>
	<rect x="185.876" y="199.906" fill="none" width="97.696" height="47.502"/>
	<text transform="matrix(1 0 0 1 198.6045 211.5259)"><tspan x="0" y="0" fill="#E1EDD2" font-family="'GillSansStd-BoldCondensed'" font-size="14">Seventeen </tspan><tspan x="12.131" y="16.8" fill="#E1EDD2" font-family="'GillSansStd-BoldCondensed'" font-size="14">Arches </tspan><tspan x="12.565" y="33.6" fill="#E1EDD2" font-family="'GillSansStd-BoldCondensed'" font-size="14">Bridge</tspan></text>
</g>
<g>
	<polygon fill="#D14750" stroke="#123555" stroke-miterlimit="10" points="802.249,348.625 802.249,299.68 708.888,299.68 
		708.888,351.498 782.664,351.498 795.215,351.498 795.215,390.291 802.265,390.291 802.265,348.625 	"/>
	<rect x="706.199" y="309.924" fill="none" width="97.696" height="40.504"/>
	<text transform="matrix(1 0 0 1 730.9961 321.5435)"><tspan x="0" y="0" fill="#E1EDD2" font-family="'GillSansStd-BoldCondensed'" font-size="14">pan jia</tspan><tspan x="7.027" y="16.8" fill="#E1EDD2" font-family="'GillSansStd-BoldCondensed'" font-size="14">yuan</tspan></text>
</g>
<g>
	<polygon fill="#D14750" stroke="#123555" stroke-miterlimit="10" points="695.249,594.625 695.249,545.68 601.888,545.68 
		601.888,597.498 675.664,597.498 688.215,597.498 688.215,636.291 695.265,636.291 695.265,594.625 	"/>
	<rect x="599.199" y="555.924" fill="none" width="97.696" height="40.504"/>
	<text transform="matrix(1 0 0 1 613.6494 567.543)"><tspan x="0" y="0" fill="#E1EDD2" font-family="'GillSansStd-BoldCondensed'" font-size="14">chaoyang</tspan><tspan x="17.893" y="16.801" fill="#E1EDD2" font-family="'GillSansStd-BoldCondensed'" font-size="14">park</tspan></text>
</g>
<g>
	<polygon fill="#D14750" stroke="#123555" stroke-miterlimit="10" points="490.93,557.201 490.93,508.256 593.289,508.256 
		593.289,560.074 512.402,560.074 498.642,560.074 498.642,598.867 490.912,598.867 490.912,557.201 	"/>
	<rect x="488.202" y="518.25" fill="none" width="109.03" height="49.836"/>
	<text transform="matrix(1 0 0 1 520.1914 529.8691)"><tspan x="0" y="0" fill="#E1EDD2" font-family="'GillSansStd-BoldCondensed'" font-size="14">Bell &amp;</tspan><tspan x="-24.996" y="16.801" fill="#E1EDD2" font-family="'GillSansStd-BoldCondensed'" font-size="14">Drum Towers</tspan></text>
</g>
<g>
	<polygon fill="#D14750" stroke="#123555" stroke-miterlimit="10" points="178.294,571.693 178.294,522.748 84.933,522.748 
		84.933,574.566 158.709,574.566 171.26,574.566 171.26,613.359 178.31,613.359 178.31,571.693 	"/>
	<rect x="91.24" y="533.018" fill="none" width="81.03" height="31.285"/>
	<text transform="matrix(1 0 0 1 110.2236 544.6367)"><tspan x="0" y="0" fill="#E1EDD2" font-family="'GillSansStd-BoldCondensed'" font-size="14">lugou</tspan><tspan x="-4.704" y="16.801" fill="#E1EDD2" font-family="'GillSansStd-BoldCondensed'" font-size="14"> bridge</tspan></text>
</g>
<g>
	<polygon fill="#D14750" stroke="#123555" stroke-miterlimit="10" points="337.807,620.396 337.807,565.238 244.445,565.238 
		244.445,623.633 318.222,623.633 330.772,623.633 330.772,667.35 337.822,667.35 337.822,620.396 	"/>
	<rect x="250.753" y="570.508" fill="none" width="81.03" height="47.785"/>
	<text transform="matrix(1 0 0 1 267.0625 582.127)"><tspan x="0" y="0" fill="#E1EDD2" font-family="'GillSansStd-BoldCondensed'" font-size="14">Beijing </tspan><tspan x="1.092" y="16.801" fill="#E1EDD2" font-family="'GillSansStd-BoldCondensed'" font-size="14">World </tspan><tspan x="7.7" y="33.6" fill="#E1EDD2" font-family="'GillSansStd-BoldCondensed'" font-size="14">Park</tspan></text>
</g>
<g>
	<polygon fill="#D14750" stroke="#123555" stroke-miterlimit="10" points="438.813,632.812 438.813,588.729 359.45,588.729 
		359.45,635.4 422.166,635.4 432.834,635.4 432.834,670.341 438.827,670.341 438.827,632.812 	"/>
	<rect x="357.758" y="594.999" fill="none" width="81.03" height="32.285"/>
	<text transform="matrix(1 0 0 1 369.6924 606.6191)"><tspan x="0" y="0" fill="#E1EDD2" font-family="'GillSansStd-BoldCondensed'" font-size="14">Beigong </tspan><tspan x="12.075" y="16.799" fill="#E1EDD2" font-family="'GillSansStd-BoldCondensed'" font-size="14">Park</tspan></text>
</g>
<g>
	<polygon fill="#D14750" stroke="#123555" stroke-miterlimit="10" points="456.933,548.573 456.933,503.589 315.579,503.589 
		315.579,551.214 427.28,551.214 446.282,551.214 446.282,586.867 456.956,586.867 456.956,548.573 	"/>
	<rect x="319.553" y="512.666" fill="none" width="132.447" height="45.334"/>
	<text transform="matrix(1 0 0 1 322.4199 524.2852)"><tspan x="0" y="0" fill="#E1EDD2" font-family="'GillSansStd-BoldCondensed'" font-size="14">Former Residence </tspan><tspan x="25.718" y="16.801" fill="#E1EDD2" font-family="'GillSansStd-BoldCondensed'" font-size="14">Of She Lao</tspan></text>
</g>
</svg>
