<?xml version="1.0" encoding="utf-8"?>
<!-- Generator: Adobe Illustrator 16.0.0, SVG Export Plug-In . SVG Version: 6.00 Build 0)  -->
<!DOCTYPE svg PUBLIC "-//W3C//DTD SVG 1.1//EN" "http://www.w3.org/Graphics/SVG/1.1/DTD/svg11.dtd">
<svg version="1.1" id="Layer_1" xmlns="http://www.w3.org/2000/svg" xmlns:xlink="http://www.w3.org/1999/xlink" x="0px" y="0px"
	 width="88.5px" height="55.814px" viewBox="7 833.447 88.5 55.814" enable-background="new 7 833.447 88.5 55.814"
	 xml:space="preserve">
<g>
	<path fill="#BCBCBC" d="M50.555,862.95c8.184-7.607,15.887-14.826,23.664-21.977c4.562-4.193,8.658-4.141,13.188-0.002
		c4.65,4.248,4.694,7.74,0.033,12.035c-9.985,9.199-19.99,18.383-30.029,27.533c-4.729,4.312-9.141,4.266-13.932-0.111
		c-10.027-9.162-20.039-18.338-30.023-27.539c-4.516-4.162-4.489-7.582-0.047-11.732c4.568-4.271,8.688-4.445,13.179-0.352
		C34.41,847.942,42.139,855.165,50.555,862.95z"/>
</g>
</svg>
