<?xml version="1.0" encoding="utf-8"?>
<!-- Generator: Adobe Illustrator 16.0.0, SVG Export Plug-In . SVG Version: 6.00 Build 0)  -->
<!DOCTYPE svg PUBLIC "-//W3C//DTD SVG 1.1//EN" "http://www.w3.org/Graphics/SVG/1.1/DTD/svg11.dtd">
<svg version="1.1" id="Layer_1" xmlns="http://www.w3.org/2000/svg" xmlns:xlink="http://www.w3.org/1999/xlink" x="0px" y="0px"
	 width="271.75px" height="416.417px" viewBox="0 0 271.75 416.417" enable-background="new 0 0 271.75 416.417"
	 xml:space="preserve">
<g>
	<rect x="8.287" y="187.133" fill-rule="evenodd" clip-rule="evenodd" fill="#FFDE17" width="42.336" height="42.337"/>
	<rect x="8.29" y="306.5" fill-rule="evenodd" clip-rule="evenodd" fill="#F287B7" width="42.336" height="42.336"/>
	<rect x="8.354" y="64.685" fill-rule="evenodd" clip-rule="evenodd" fill="#D5DF24" width="42.336" height="42.337"/>
	<rect x="8.301" y="4.759" fill-rule="evenodd" clip-rule="evenodd" fill="#56C7DA" width="42.336" height="42.336"/>
	<rect x="8.383" y="125.956" fill-rule="evenodd" clip-rule="evenodd" fill="#BFAAD2" width="42.336" height="42.336"/>
	<rect x="8.269" y="246.605" fill-rule="evenodd" clip-rule="evenodd" fill="#F89848" width="42.336" height="42.336"/>
	<rect x="8.312" y="366.394" fill-rule="evenodd" clip-rule="evenodd" fill="#E87868" width="42.336" height="42.337"/>
</g>
<rect x="69.33" y="8.459" fill="none" width="108.562" height="36.834"/>
<text transform="matrix(1 0 0 1 69.3301 38.3389)" fill="#F9EBCC" font-family="'GillSansStd-BoldCondensed'" font-size="36" letter-spacing="1">&lt; $21</text>
<rect x="69.476" y="66.626" fill="none" width="175.895" height="36.834"/>
<text transform="matrix(1 0 0 1 69.4756 96.5059)" fill="#F9EBCC" font-family="'GillSansStd-BoldCondensed'" font-size="36" letter-spacing="1">$21 ~ $30</text>
<rect x="69.476" y="128.626" fill="none" width="175.895" height="36.834"/>
<text transform="matrix(1 0 0 1 69.4756 158.5059)" fill="#F9EBCC" font-family="'GillSansStd-BoldCondensed'" font-size="36" letter-spacing="1">$31 ~ $40</text>
<rect x="69.476" y="190.626" fill="none" width="175.895" height="36.834"/>
<text transform="matrix(1 0 0 1 69.4756 220.5059)" fill="#F9EBCC" font-family="'GillSansStd-BoldCondensed'" font-size="36" letter-spacing="1">$41 ~ $50</text>
<rect x="69.476" y="249.959" fill="none" width="175.895" height="36.834"/>
<text transform="matrix(1 0 0 1 69.4756 279.8389)" fill="#F9EBCC" font-family="'GillSansStd-BoldCondensed'" font-size="36" letter-spacing="1">$51 ~ $70</text>
<rect x="69.393" y="311.959" fill="none" width="196.562" height="36.834"/>
<text transform="matrix(1 0 0 1 69.3926 341.8389)" fill="#F9EBCC" font-family="'GillSansStd-BoldCondensed'" font-size="36" letter-spacing="1">$71 ~ $100</text>
<rect x="69.393" y="371.292" fill="none" width="175.895" height="36.834"/>
<text transform="matrix(1 0 0 1 69.3926 401.1719)" fill="#F9EBCC" font-family="'GillSansStd-BoldCondensed'" font-size="36" letter-spacing="1">&gt; $101</text>
</svg>
